Coordinates
version=1
nRows=65
nColumns=12
inDegrees=yes

Units are S.I. units (second, meters, Newtons, ...)
Angles are in degrees

endheader
time	SC_y	SC_z	SC_x	AC_y	AC_z	AC_x	GH_y	GH_z	GH_yy	EL_x	PS_y
       0.0              -54.49          29.85          5.176          30.15          2.613         -3.048         -24.91          82.82          112.3          125.6          144.6
   0.01177              -54.49          29.85          5.176          30.15          2.611         -3.049         -24.88          82.81          112.3          125.6          144.6
   0.02353              -54.49          29.85          5.177          30.16           2.61         -3.049         -24.86           82.8          112.3          125.6          144.6
    0.0353              -54.48          29.85          5.177          30.16          2.608         -3.049         -24.83          82.78          112.3          125.6          144.6
   0.04706              -54.48          29.85          5.178          30.16          2.605         -3.049          -24.8          82.77          112.3          125.6          144.6
   0.05883              -54.48          29.85          5.178          30.17          2.603         -3.049         -24.77          82.76          112.4          125.5          144.6
   0.07059              -54.48          29.85          5.179          30.17          2.601         -3.049         -24.73          82.74          112.4          125.5          144.6
   0.08236              -54.47          29.84           5.18          30.18          2.598         -3.049          -24.7          82.72          112.4          125.5          144.6
   0.09412              -54.47          29.84           5.18          30.18          2.595          -3.05         -24.66          82.71          112.4          125.5          144.6
    0.1059              -54.47          29.84          5.181          30.19          2.592          -3.05         -24.62          82.69          112.4          125.5          144.7
    0.1177              -54.46          29.84          5.182          30.19          2.589          -3.05         -24.57          82.67          112.4          125.5          144.7
    0.1294              -54.46          29.84          5.183           30.2          2.586          -3.05         -24.52          82.65          112.5          125.4          144.7
    0.1412              -54.45          29.83          5.184           30.2          2.582          -3.05         -24.47          82.62          112.5          125.4          144.7
    0.1529              -54.45          29.83          5.185          30.21          2.578         -3.051         -24.42           82.6          112.5          125.4          144.7
    0.1647              -54.44          29.83          5.186          30.22          2.573         -3.051         -24.36          82.57          112.5          125.4          144.7
    0.1765              -54.44          29.82          5.187          30.23          2.569         -3.051         -24.29          82.54          112.5          125.4          144.7
    0.1882              -54.43          29.82          5.189          30.23          2.564         -3.052         -24.22          82.51          112.6          125.3          144.7
       0.2              -54.42          29.82           5.19          30.24          2.558         -3.052         -24.14          82.47          112.6          125.3          144.7
    0.2118              -54.42          29.81          5.192          30.25          2.552         -3.052         -24.05          82.43          112.6          125.3          144.7
    0.2235              -54.41          29.81          5.194          30.27          2.545         -3.053         -23.96          82.39          112.7          125.2          144.7
    0.2353               -54.4           29.8          5.196          30.28          2.538         -3.053         -23.86          82.35          112.7          125.2          144.7
    0.2471              -54.39           29.8          5.198          30.29           2.53         -3.054         -23.75          82.29          112.7          125.1          144.7
    0.2588              -54.38          29.79            5.2          30.31          2.521         -3.054         -23.62          82.24          112.8          125.1          144.7
    0.2706              -54.37          29.79          5.203          30.32          2.511         -3.055         -23.48          82.18          112.8          125.0          144.8
    0.2824              -54.36          29.78          5.206          30.34            2.5         -3.056         -23.33          82.11          112.9          125.0          144.8
    0.2941              -54.34          29.77          5.209          30.36          2.487         -3.057         -23.16          82.03          113.0          124.9          144.8
    0.3059              -54.32          29.76          5.213          30.39          2.474         -3.058         -22.97          81.94          113.0          124.9          144.8
    0.3177              -54.31          29.75          5.217          30.41          2.458         -3.059         -22.75          81.85          113.1          124.8          144.8
    0.3294              -54.29          29.74          5.222          30.44          2.441          -3.06         -22.51          81.74          113.2          124.7          144.8
    0.3412              -54.26          29.73          5.227          30.48          2.421         -3.061         -22.23          81.61          113.3          124.6          144.9
     0.353              -54.23          29.71          5.233          30.51          2.398         -3.063         -21.92          81.47          113.4          124.4          144.9
    0.3647               -54.2          29.69           5.24          30.56          2.372         -3.064         -21.55          81.31          113.6          124.3          144.9
    0.3765              -54.17          29.67          5.248          30.61          2.342         -3.066         -21.13          81.12          113.7          124.1          145.0
    0.3882              -54.13          29.65          5.258          30.67          2.307         -3.068         -20.65           80.9          113.9          124.0          145.0
       0.4              -54.08          29.62          5.269          30.74          2.266         -3.071         -20.08          80.64          114.1          123.7          145.0
    0.4118              -54.02          29.59          5.282          30.82          2.218         -3.074         -19.41          80.34          114.4          123.5          145.1
    0.4235              -53.95          29.55          5.297          30.92           2.16         -3.078         -18.61          79.98          114.7          123.2          145.2
    0.4353              -53.87          29.51          5.316          31.03          2.092         -3.083         -17.66          79.55          115.1          122.8          145.3
    0.4471              -53.77          29.45          5.338          31.17          2.009         -3.088          -16.5          79.03          115.5          122.4          145.4
    0.4588              -53.65          29.38          5.365          31.35          1.907         -3.095         -15.09           78.4          116.0          121.8          145.5
    0.4706               -53.5           29.3          5.399          31.56          1.782         -3.103         -13.35          77.61          116.7          121.2          145.6
    0.4824              -53.31          29.19          5.441          31.82          1.626         -3.113         -11.18          76.63          117.5          120.3          145.8
    0.4941              -53.08          29.06          5.494          32.16          1.429         -3.126         -8.439           75.4          118.6          119.3          146.1
    0.5059              -52.78           28.9          5.561          32.58          1.179         -3.142          -4.96          73.84          119.9          117.9          146.4
    0.5177               -52.4          28.68          5.647          33.13         0.8583         -3.163         -0.507          71.83          121.6          116.2          146.8
    0.5294              -51.91          28.41          5.758          33.82         0.4474          -3.19          5.207          69.26          123.7          114.0          147.3
    0.5412              -51.29          28.06          5.899          34.71       -0.07759         -3.225          12.51          65.97          126.5          111.2          147.9
     0.553               -50.5          27.61          6.076          35.83        -0.7377         -3.268          21.69          61.84          130.0          107.7          148.7
    0.5647              -49.54          27.08          6.292           37.2         -1.542          -3.32          32.87           56.8          134.3          103.4          149.7
    0.5765              -48.43          26.45          6.543          38.78         -2.474         -3.382          45.83          50.96          139.2          98.41          150.8
    0.5883              -47.23          25.78          6.814          40.49         -3.484         -3.448          59.87          44.64          144.5          93.01          152.0
       0.6              -46.03           25.1          7.086           42.2         -4.494         -3.514          73.91          38.32          149.8          87.62          153.3
    0.6118              -44.92          24.48          7.336          43.78         -5.426         -3.575          86.87          32.48          154.8          82.63          154.4
    0.6235              -43.96          23.94          7.552          45.14          -6.23         -3.627          98.06          27.45          159.0          78.34          155.4
    0.6353              -43.17           23.5           7.73          46.26          -6.89         -3.671          107.2          23.32          162.5          74.81          156.2
    0.6471              -42.55          23.15          7.871          47.15         -7.415         -3.705          114.5          20.03          165.3           72.0          156.8
    0.6588              -42.06          22.88          7.981          47.85         -7.826         -3.732          120.3          17.46          167.4          69.81          157.3
    0.6706              -41.68          22.66          8.067          48.39         -8.147         -3.753          124.7          15.45          169.1           68.1          157.7
    0.6824              -41.38          22.49          8.135          48.82         -8.397         -3.769          128.2          13.88          170.4          66.76          158.0
    0.6941              -41.15          22.36          8.187          49.15         -8.594         -3.782          130.9          12.65          171.5          65.71          158.2
    0.7059              -40.96          22.26          8.229          49.42          -8.75         -3.792          133.1          11.67          172.3          64.87          158.4
    0.7177              -40.81          22.17          8.263          49.63         -8.875         -3.801          134.8          10.89          173.0           64.2          158.6
    0.7294              -40.69          22.11           8.29           49.8         -8.977         -3.807          136.2          10.25          173.5          63.66          158.7
    0.7412              -40.59          22.05          8.313          49.94          -9.06         -3.813          137.4          9.733          173.9          63.22          158.8
     0.753              -40.51          22.01          8.331          50.06         -9.128         -3.817          138.4          9.303          174.3          62.85          158.9
